<?xml version="1.0" standalone="no"?>
<!DOCTYPE svg PUBLIC "-//W3C//DTD SVG 20010904//EN"
 "http://www.w3.org/TR/2001/REC-SVG-20010904/DTD/svg10.dtd">
<svg version="1.0" xmlns="http://www.w3.org/2000/svg"
 width="512.000000pt" height="512.000000pt" viewBox="0 0 512.000000 512.000000"
 preserveAspectRatio="xMidYMid meet">

<g transform="translate(0.000000,512.000000) scale(0.100000,-0.100000)"
fill="#000000" stroke="none">
<path d="M2945 3948 c-17 -16 -29 -41 -37 -79 -10 -50 -9 -60 5 -83 32 -48 98
-44 132 7 9 14 18 47 22 75 5 45 3 53 -20 76 -32 32 -68 33 -102 4z"/>
<path d="M3211 3883 c-29 -24 -49 -121 -33 -158 17 -37 59 -50 99 -31 26 12
35 26 47 67 21 71 20 86 -9 114 -29 30 -74 33 -104 8z"/>
<path d="M2000 2270 l0 -150 59 0 c85 0 218 -26 312 -60 233 -85 445 -296 528
-527 184 -507 -85 -1038 -604 -1194 -101 -30 -303 -37 -416 -15 -360 73 -641
354 -714 715 -21 103 -16 313 10 406 39 139 131 300 233 404 l57 58 -5 182 -5
182 -75 -52 c-305 -210 -486 -508 -530 -875 -26 -214 20 -475 117 -669 113
-225 323 -435 548 -548 354 -177 803 -162 1145 38 150 88 302 228 386 355 l27
40 123 0 124 0 -39 -51 c-124 -164 -67 -391 119 -477 147 -69 334 -2 407 146
24 49 28 69 28 142 0 72 -4 92 -27 135 -14 28 -35 59 -47 69 -12 11 -21 23
-21 28 0 4 110 8 245 8 232 0 246 1 265 20 27 27 27 83 0 110 -19 19 -35 20
-287 22 -148 1 -388 0 -535 -2 -148 -1 -268 -1 -268 2 0 2 13 41 30 86 83 229
94 486 29 746 -24 99 -101 261 -170 361 -100 146 -288 308 -452 391 -150 76
-346 124 -508 124 l-89 0 0 -150z"/>
<path d="M1929 1329 c-78 -84 -54 -213 51 -267 55 -28 116 -24 171 12 69 46
92 159 46 227 -23 34 -23 34 -93 31 -48 -3 -83 1 -108 12 -38 16 -38 16 -67
-15z"/>
</g>
</svg>
